<?xml version="1.0" standalone="no"?>
<svg xmlns:xlink="http://www.w3.org/1999/xlink" xmlns="http://www.w3.org/2000/svg" width="400" height="400" viewBox="0 0 400 400" title="undefined" style="width: 400px; height: 400px;"><rect x="0" y="0" width="400" height="400" fill="#fff"/><path d="M 21 21 L 38 21 L 38 38 L 21 38 L 21 21 A 0 0 0 0 1 21 21 M 38 21 L 55 21 L 55 38 L 38 38 L 38 21 M 55 21 L 72 21 L 72 38 L 55 38 L 55 21 M 72 21 L 89 21 L 89 38 L 72 38 L 72 21 M 89 21 L 106 21 L 106 38 L 89 38 L 89 21 M 106 21 L 123 21 L 123 38 L 106 38 L 106 21 M 123 21 L 140 21 A 0 0 0 0 1 140 21 L 140 38 L 123 38 L 123 21 M 157 21 L 174 21 L 174 38 L 157 38 L 157 21 A 0 0 0 0 1 157 21 M 174 21 L 191 21 L 191 38 L 174 38 L 174 21 M 191 21 L 208 21 A 0 0 0 0 1 208 21 L 208 38 A 0 0 0 0 1 208 38 L 191 38 L 191 21 M 259 21 L 276 21 L 276 38 L 259 38 L 259 21 A 0 0 0 0 1 259 21 M 276 21 L 293 21 L 293 38 L 276 38 L 276 21 M 293 21 L 310 21 L 310 38 L 293 38 L 293 21 M 310 21 L 327 21 L 327 38 L 310 38 L 310 21 M 327 21 L 344 21 L 344 38 L 327 38 L 327 21 M 344 21 L 361 21 L 361 38 L 344 38 L 344 21 M 361 21 L 378 21 A 0 0 0 0 1 378 21 L 378 38 L 361 38 L 361 21 M 21 38 L 38 38 L 38 55 L 21 55 L 21 38 M 38 38 L 38 38 L 38 38 A 0 0 0 0 1 38 38 M 123 38 L 123 38 L 123 38 A 0 0 0 0 1 123 38 M 123 38 L 140 38 L 140 55 L 123 55 L 123 38 M 157 38 L 174 38 L 174 55 A 0 0 0 0 1 174 55 L 157 55 A 0 0 0 0 1 157 55 L 157 38 M 174 38 L 174 38 L 174 38 A 0 0 0 0 1 174 38 M 225 55 L 225 55 L 225 55 A 0 0 0 0 1 225 55 M 225 38 L 242 38 A 0 0 0 0 1 242 38 L 242 55 L 225 55 L 225 38 A 0 0 0 0 1 225 38 M 259 38 L 276 38 L 276 55 L 259 55 L 259 38 M 276 38 L 276 38 L 276 38 A 0 0 0 0 1 276 38 M 361 38 L 361 38 L 361 38 A 0 0 0 0 1 361 38 M 361 38 L 378 38 L 378 55 L 361 55 L 361 38 M 21 55 L 38 55 L 38 72 L 21 72 L 21 55 M 55 55 L 72 55 L 72 72 L 55 72 L 55 55 A 0 0 0 0 1 55 55 M 72 55 L 89 55 L 89 72 L 72 72 L 72 55 M 89 55 L 106 55 A 0 0 0 0 1 106 55 L 106 72 L 89 72 L 89 55 M 123 55 L 140 55 L 140 72 L 123 72 L 123 55 M 208 55 L 225 55 L 225 72 L 208 72 L 208 55 A 0 0 0 0 1 208 55 M 225 55 L 242 55 L 242 72 L 225 72 L 225 55 M 259 55 L 276 55 L 276 72 L 259 72 L 259 55 M 293 55 L 310 55 L 310 72 L 293 72 L 293 55 A 0 0 0 0 1 293 55 M 310 55 L 327 55 L 327 72 L 310 72 L 310 55 M 327 55 L 344 55 A 0 0 0 0 1 344 55 L 344 72 L 327 72 L 327 55 M 361 55 L 378 55 L 378 72 L 361 72 L 361 55 M 21 72 L 38 72 L 38 89 L 21 89 L 21 72 M 55 72 L 72 72 L 72 89 L 55 89 L 55 72 M 72 72 L 89 72 L 89 89 L 72 89 L 72 72 M 89 72 L 106 72 L 106 89 L 89 89 L 89 72 M 123 72 L 140 72 L 140 89 L 123 89 L 123 72 M 157 72 L 174 72 A 0 0 0 0 1 174 72 L 174 89 L 157 89 L 157 72 A 0 0 0 0 1 157 72 M 208 89 L 208 89 L 208 89 A 0 0 0 0 1 208 89 M 208 72 L 225 72 L 225 89 L 208 89 L 208 72 M 225 72 L 242 72 L 242 89 A 0 0 0 0 1 242 89 L 225 89 L 225 72 M 259 72 L 276 72 L 276 89 L 259 89 L 259 72 M 293 72 L 310 72 L 310 89 L 293 89 L 293 72 M 310 72 L 327 72 L 327 89 L 310 89 L 310 72 M 327 72 L 344 72 L 344 89 L 327 89 L 327 72 M 361 72 L 378 72 L 378 89 L 361 89 L 361 72 M 21 89 L 38 89 L 38 106 L 21 106 L 21 89 M 55 89 L 72 89 L 72 106 L 55 106 A 0 0 0 0 1 55 106 L 55 89 M 72 89 L 89 89 L 89 106 L 72 106 L 72 89 M 89 89 L 106 89 L 106 106 A 0 0 0 0 1 106 106 L 89 106 L 89 89 M 123 89 L 140 89 L 140 106 L 123 106 L 123 89 M 157 89 L 174 89 L 174 106 L 157 106 L 157 89 M 174 106 L 174 106 L 174 106 A 0 0 0 0 1 174 106 M 191 89 L 208 89 L 208 106 L 191 106 A 0 0 0 0 1 191 106 L 191 89 A 0 0 0 0 1 191 89 M 208 89 L 225 89 L 225 106 L 208 106 L 208 89 M 225 89 L 225 89 L 225 89 A 0 0 0 0 1 225 89 M 259 89 L 276 89 L 276 106 L 259 106 L 259 89 M 293 89 L 310 89 L 310 106 L 293 106 A 0 0 0 0 1 293 106 L 293 89 M 310 89 L 327 89 L 327 106 L 310 106 L 310 89 M 327 89 L 344 89 L 344 106 A 0 0 0 0 1 344 106 L 327 106 L 327 89 M 361 89 L 378 89 L 378 106 L 361 106 L 361 89 M 21 106 L 38 106 L 38 123 L 21 123 L 21 106 M 38 123 L 38 123 L 38 123 A 0 0 0 0 1 38 123 M 123 123 L 123 123 L 123 123 A 0 0 0 0 1 123 123 M 123 106 L 140 106 L 140 123 L 123 123 L 123 106 M 157 106 L 174 106 L 174 123 L 157 123 L 157 106 M 174 106 L 191 106 A 0 0 0 0 1 191 106 L 191 123 A 0 0 0 0 1 191 123 L 174 123 L 174 106 M 208 106 L 208 106 L 208 106 A 0 0 0 0 1 208 106 M 208 106 L 225 106 L 225 123 A 0 0 0 0 1 225 123 L 208 123 A 0 0 0 0 1 208 123 L 208 106 M 259 106 L 276 106 L 276 123 L 259 123 L 259 106 M 276 123 L 276 123 L 276 123 A 0 0 0 0 1 276 123 M 361 123 L 361 123 L 361 123 A 0 0 0 0 1 361 123 M 361 106 L 378 106 L 378 123 L 361 123 L 361 106 M 21 123 L 38 123 L 38 140 L 21 140 A 0 0 0 0 1 21 140 L 21 123 M 38 123 L 55 123 L 55 140 L 38 140 L 38 123 M 55 123 L 72 123 L 72 140 L 55 140 L 55 123 M 72 123 L 89 123 L 89 140 L 72 140 L 72 123 M 89 123 L 106 123 L 106 140 L 89 140 L 89 123 M 106 123 L 123 123 L 123 140 L 106 140 L 106 123 M 123 123 L 140 123 L 140 140 A 0 0 0 0 1 140 140 L 123 140 L 123 123 M 157 123 L 174 123 L 174 140 A 0 0 0 0 1 174 140 L 157 140 A 0 0 0 0 1 157 140 L 157 123 M 174 123 L 174 123 L 174 123 A 0 0 0 0 1 174 123 M 191 123 L 208 123 A 0 0 0 0 1 208 123 L 208 140 A 0 0 0 0 1 208 140 L 191 140 A 0 0 0 0 1 191 140 L 191 123 A 0 0 0 0 1 191 123 M 225 140 L 225 140 L 225 140 A 0 0 0 0 1 225 140 M 225 123 L 242 123 A 0 0 0 0 1 242 123 L 242 140 L 225 140 L 225 123 A 0 0 0 0 1 225 123 M 259 123 L 276 123 L 276 140 L 259 140 A 0 0 0 0 1 259 140 L 259 123 M 276 123 L 293 123 L 293 140 L 276 140 L 276 123 M 293 123 L 310 123 L 310 140 L 293 140 L 293 123 M 310 123 L 327 123 L 327 140 L 310 140 L 310 123 M 327 123 L 344 123 L 344 140 L 327 140 L 327 123 M 344 123 L 361 123 L 361 140 L 344 140 L 344 123 M 361 123 L 378 123 L 378 140 A 0 0 0 0 1 378 140 L 361 140 L 361 123 M 174 140 L 191 140 A 0 0 0 0 1 191 140 L 191 157 A 0 0 0 0 1 191 157 L 174 157 A 0 0 0 0 1 174 157 L 174 140 A 0 0 0 0 1 174 140 M 208 140 L 225 140 L 225 157 L 208 157 A 0 0 0 0 1 208 157 L 208 140 A 0 0 0 0 1 208 140 M 225 140 L 242 140 L 242 157 L 225 157 L 225 140 M 72 174 L 72 174 L 72 174 A 0 0 0 0 1 72 174 M 72 157 L 89 157 A 0 0 0 0 1 89 157 L 89 174 L 72 174 L 72 157 A 0 0 0 0 1 72 157 M 123 157 L 140 157 A 0 0 0 0 1 140 157 L 140 174 A 0 0 0 0 1 140 174 L 123 174 A 0 0 0 0 1 123 174 L 123 157 A 0 0 0 0 1 123 157 M 225 157 L 225 157 L 225 157 A 0 0 0 0 1 225 157 M 225 157 L 242 157 L 242 174 A 0 0 0 0 1 242 174 L 225 174 A 0 0 0 0 1 225 174 L 225 157 M 276 157 L 293 157 L 293 174 L 276 174 L 276 157 A 0 0 0 0 1 276 157 M 293 157 L 310 157 L 310 174 L 293 174 L 293 157 M 310 157 L 327 157 A 0 0 0 0 1 327 157 L 327 174 L 310 174 L 310 157 M 344 157 L 361 157 L 361 174 L 344 174 L 344 157 A 0 0 0 0 1 344 157 M 361 157 L 378 157 A 0 0 0 0 1 378 157 L 378 174 A 0 0 0 0 1 378 174 L 361 174 L 361 157 M 55 174 L 72 174 L 72 191 L 55 191 A 0 0 0 0 1 55 191 L 55 174 A 0 0 0 0 1 55 174 M 72 174 L 89 174 L 89 191 L 72 191 L 72 174 M 106 191 L 106 191 L 106 191 A 0 0 0 0 1 106 191 M 89 191 L 89 191 L 89 191 A 0 0 0 0 1 89 191 M 106 174 L 123 174 A 0 0 0 0 1 123 174 L 123 191 L 106 191 L 106 174 A 0 0 0 0 1 106 174 M 140 191 L 140 191 L 140 191 A 0 0 0 0 1 140 191 M 123 191 L 123 191 L 123 191 A 0 0 0 0 1 123 191 M 140 174 L 157 174 L 157 191 L 140 191 L 140 174 A 0 0 0 0 1 140 174 M 157 174 L 174 174 A 0 0 0 0 1 174 174 L 174 191 L 157 191 L 157 174 M 174 191 L 174 191 L 174 191 A 0 0 0 0 1 174 191 M 208 174 L 225 174 A 0 0 0 0 1 225 174 L 225 191 A 0 0 0 0 1 225 191 L 208 191 A 0 0 0 0 1 208 191 L 208 174 A 0 0 0 0 1 208 174 M 276 174 L 293 174 L 293 191 L 276 191 L 276 174 M 293 174 L 293 174 L 293 174 A 0 0 0 0 1 293 174 M 310 174 L 310 174 L 310 174 A 0 0 0 0 1 310 174 M 310 191 L 310 191 L 310 191 A 0 0 0 0 1 310 191 M 293 191 L 293 191 L 293 191 A 0 0 0 0 1 293 191 M 310 174 L 327 174 L 327 191 L 310 191 L 310 174 M 327 191 L 327 191 L 327 191 A 0 0 0 0 1 327 191 M 344 174 L 361 174 L 361 191 A 0 0 0 0 1 361 191 L 344 191 A 0 0 0 0 1 344 191 L 344 174 M 361 174 L 361 174 L 361 174 A 0 0 0 0 1 361 174 M 38 191 L 55 191 A 0 0 0 0 1 55 191 L 55 208 A 0 0 0 0 1 55 208 L 38 208 A 0 0 0 0 1 38 208 L 38 191 A 0 0 0 0 1 38 191 M 72 191 L 72 191 L 72 191 A 0 0 0 0 1 72 191 M 72 191 L 89 191 L 89 208 L 72 208 L 72 191 M 89 191 L 106 191 L 106 208 L 89 208 L 89 191 M 106 191 L 123 191 L 123 208 L 106 208 L 106 191 M 123 191 L 140 191 L 140 208 L 123 208 L 123 191 M 140 191 L 157 191 L 157 208 L 140 208 L 140 191 M 157 191 L 174 191 L 174 208 L 157 208 L 157 191 M 174 191 L 191 191 L 191 208 L 174 208 L 174 191 M 191 191 L 208 191 A 0 0 0 0 1 208 191 L 208 208 A 0 0 0 0 1 208 208 L 191 208 L 191 191 M 242 191 L 259 191 A 0 0 0 0 1 259 191 L 259 208 A 0 0 0 0 1 259 208 L 242 208 A 0 0 0 0 1 242 208 L 242 191 A 0 0 0 0 1 242 191 M 276 191 L 293 191 L 293 208 L 276 208 L 276 191 M 293 191 L 310 191 L 310 208 L 293 208 L 293 191 M 310 191 L 327 191 L 327 208 L 310 208 L 310 191 M 327 191 L 344 191 A 0 0 0 0 1 344 191 L 344 208 A 0 0 0 0 1 344 208 L 327 208 L 327 191 M 72 208 L 89 208 L 89 225 L 72 225 L 72 208 M 89 208 L 106 208 L 106 225 L 89 225 L 89 208 M 106 208 L 123 208 L 123 225 L 106 225 L 106 208 M 123 208 L 123 208 L 123 208 A 0 0 0 0 1 123 208 M 140 208 L 140 208 L 140 208 A 0 0 0 0 1 140 208 M 123 225 L 123 225 L 123 225 A 0 0 0 0 1 123 225 M 140 208 L 157 208 L 157 225 L 140 225 A 0 0 0 0 1 140 225 L 140 208 M 157 208 L 174 208 L 174 225 L 157 225 L 157 208 M 174 208 L 191 208 L 191 225 A 0 0 0 0 1 191 225 L 174 225 L 174 208 M 191 208 L 191 208 L 191 208 A 0 0 0 0 1 191 208 M 225 225 L 225 225 L 225 225 A 0 0 0 0 1 225 225 M 225 208 L 242 208 A 0 0 0 0 1 242 208 L 242 225 L 225 225 L 225 208 A 0 0 0 0 1 225 208 M 242 225 L 242 225 L 242 225 A 0 0 0 0 1 242 225 M 276 225 L 276 225 L 276 225 A 0 0 0 0 1 276 225 M 276 208 L 293 208 L 293 225 L 276 225 L 276 208 M 293 208 L 310 208 L 310 225 A 0 0 0 0 1 310 225 L 293 225 L 293 208 M 310 208 L 310 208 L 310 208 A 0 0 0 0 1 310 208 M 344 225 L 344 225 L 344 225 A 0 0 0 0 1 344 225 M 344 208 L 361 208 A 0 0 0 0 1 361 208 L 361 225 L 344 225 L 344 208 A 0 0 0 0 1 344 208 M 21 225 L 38 225 L 38 242 L 21 242 A 0 0 0 0 1 21 242 L 21 225 A 0 0 0 0 1 21 225 M 38 225 L 55 225 A 0 0 0 0 1 55 225 L 55 242 A 0 0 0 0 1 55 242 L 38 242 L 38 225 M 72 225 L 89 225 L 89 242 L 72 242 A 0 0 0 0 1 72 242 L 72 225 M 89 225 L 106 225 L 106 242 L 89 242 L 89 225 M 106 225 L 123 225 L 123 242 L 106 242 L 106 225 M 123 225 L 140 225 A 0 0 0 0 1 140 225 L 140 242 A 0 0 0 0 1 140 242 L 123 242 L 123 225 M 208 225 L 225 225 L 225 242 L 208 242 L 208 225 A 0 0 0 0 1 208 225 M 225 225 L 242 225 L 242 242 L 225 242 L 225 225 M 242 225 L 259 225 L 259 242 L 242 242 L 242 225 M 259 225 L 276 225 L 276 242 L 259 242 L 259 225 M 276 225 L 293 225 L 293 242 A 0 0 0 0 1 293 242 L 276 242 L 276 225 M 293 225 L 293 225 L 293 225 A 0 0 0 0 1 293 225 M 310 225 L 327 225 L 327 242 L 310 242 A 0 0 0 0 1 310 242 L 310 225 A 0 0 0 0 1 310 225 M 327 225 L 344 225 L 344 242 L 327 242 L 327 225 M 344 225 L 361 225 L 361 242 A 0 0 0 0 1 361 242 L 344 242 L 344 225 M 157 242 L 174 242 L 174 259 L 157 259 A 0 0 0 0 1 157 259 L 157 242 A 0 0 0 0 1 157 242 M 174 242 L 191 242 A 0 0 0 0 1 191 242 L 191 259 A 0 0 0 0 1 191 259 L 174 259 L 174 242 M 208 242 L 225 242 L 225 259 L 208 259 L 208 242 M 225 242 L 242 242 L 242 259 A 0 0 0 0 1 242 259 L 225 259 L 225 242 M 242 242 L 242 242 L 242 242 A 0 0 0 0 1 242 242 M 259 242 L 259 242 L 259 242 A 0 0 0 0 1 259 242 M 259 242 L 276 242 L 276 259 A 0 0 0 0 1 276 259 L 259 259 A 0 0 0 0 1 259 259 L 259 242 M 276 242 L 276 242 L 276 242 A 0 0 0 0 1 276 242 M 293 242 L 310 242 A 0 0 0 0 1 310 242 L 310 259 L 293 259 L 293 242 A 0 0 0 0 1 293 242 M 327 242 L 327 242 L 327 242 A 0 0 0 0 1 327 242 M 310 259 L 310 259 L 310 259 A 0 0 0 0 1 310 259 M 327 242 L 344 242 L 344 259 A 0 0 0 0 1 344 259 L 327 259 A 0 0 0 0 1 327 259 L 327 242 M 344 242 L 344 242 L 344 242 A 0 0 0 0 1 344 242 M 21 259 L 38 259 L 38 276 L 21 276 L 21 259 A 0 0 0 0 1 21 259 M 38 259 L 55 259 L 55 276 L 38 276 L 38 259 M 55 259 L 72 259 L 72 276 L 55 276 L 55 259 M 72 259 L 89 259 L 89 276 L 72 276 L 72 259 M 89 259 L 106 259 L 106 276 L 89 276 L 89 259 M 106 259 L 123 259 L 123 276 L 106 276 L 106 259 M 123 259 L 140 259 A 0 0 0 0 1 140 259 L 140 276 L 123 276 L 123 259 M 208 276 L 208 276 L 208 276 A 0 0 0 0 1 208 276 M 208 259 L 225 259 L 225 276 L 208 276 L 208 259 M 225 259 L 225 259 L 225 259 A 0 0 0 0 1 225 259 M 242 259 L 259 259 A 0 0 0 0 1 259 259 L 259 276 L 242 276 L 242 259 A 0 0 0 0 1 242 259 M 259 276 L 259 276 L 259 276 A 0 0 0 0 1 259 276 M 293 259 L 310 259 L 310 276 L 293 276 A 0 0 0 0 1 293 276 L 293 259 M 310 259 L 327 259 A 0 0 0 0 1 327 259 L 327 276 A 0 0 0 0 1 327 276 L 310 276 L 310 259 M 21 276 L 38 276 L 38 293 L 21 293 L 21 276 M 38 276 L 38 276 L 38 276 A 0 0 0 0 1 38 276 M 123 276 L 123 276 L 123 276 A 0 0 0 0 1 123 276 M 123 276 L 140 276 L 140 293 L 123 293 L 123 276 M 174 276 L 191 276 L 191 293 L 174 293 A 0 0 0 0 1 174 293 L 174 276 A 0 0 0 0 1 174 276 M 191 276 L 208 276 L 208 293 L 191 293 L 191 276 M 208 276 L 225 276 L 225 293 L 208 293 L 208 276 M 225 293 L 225 293 L 225 293 A 0 0 0 0 1 225 293 M 242 276 L 259 276 L 259 293 L 242 293 A 0 0 0 0 1 242 293 L 242 276 M 259 276 L 276 276 A 0 0 0 0 1 276 276 L 276 293 L 259 293 L 259 276 M 327 276 L 344 276 L 344 293 L 327 293 L 327 276 A 0 0 0 0 1 327 276 M 344 276 L 361 276 A 0 0 0 0 1 361 276 L 361 293 L 344 293 L 344 276 M 361 293 L 361 293 L 361 293 A 0 0 0 0 1 361 293 M 21 293 L 38 293 L 38 310 L 21 310 L 21 293 M 55 293 L 72 293 L 72 310 L 55 310 L 55 293 A 0 0 0 0 1 55 293 M 72 293 L 89 293 L 89 310 L 72 310 L 72 293 M 89 293 L 106 293 A 0 0 0 0 1 106 293 L 106 310 L 89 310 L 89 293 M 123 293 L 140 293 L 140 310 L 123 310 L 123 293 M 191 293 L 191 293 L 191 293 A 0 0 0 0 1 191 293 M 191 310 L 191 310 L 191 310 A 0 0 0 0 1 191 310 M 191 293 L 208 293 L 208 310 L 191 310 L 191 293 M 208 293 L 225 293 L 225 310 L 208 310 L 208 293 M 225 293 L 242 293 A 0 0 0 0 1 242 293 L 242 310 A 0 0 0 0 1 242 310 L 225 310 L 225 293 M 259 293 L 259 293 L 259 293 A 0 0 0 0 1 259 293 M 259 293 L 276 293 L 276 310 A 0 0 0 0 1 276 310 L 259 310 A 0 0 0 0 1 259 310 L 259 293 M 327 293 L 344 293 L 344 310 L 327 310 A 0 0 0 0 1 327 310 L 327 293 M 344 293 L 361 293 L 361 310 L 344 310 L 344 293 M 361 293 L 378 293 A 0 0 0 0 1 378 293 L 378 310 L 361 310 L 361 293 M 21 310 L 38 310 L 38 327 L 21 327 L 21 310 M 55 310 L 72 310 L 72 327 L 55 327 L 55 310 M 72 310 L 89 310 L 89 327 L 72 327 L 72 310 M 89 310 L 106 310 L 106 327 L 89 327 L 89 310 M 123 310 L 140 310 L 140 327 L 123 327 L 123 310 M 157 310 L 174 310 L 174 327 L 157 327 A 0 0 0 0 1 157 327 L 157 310 A 0 0 0 0 1 157 310 M 174 310 L 191 310 L 191 327 L 174 327 L 174 310 M 191 310 L 208 310 L 208 327 L 191 327 L 191 310 M 208 310 L 225 310 L 225 327 L 208 327 L 208 310 M 225 310 L 225 310 L 225 310 A 0 0 0 0 1 225 310 M 225 327 L 225 327 L 225 327 A 0 0 0 0 1 225 327 M 276 310 L 293 310 A 0 0 0 0 1 293 310 L 293 327 L 276 327 L 276 310 A 0 0 0 0 1 276 310 M 344 310 L 344 310 L 344 310 A 0 0 0 0 1 344 310 M 344 310 L 361 310 L 361 327 L 344 327 A 0 0 0 0 1 344 327 L 344 310 M 361 310 L 378 310 L 378 327 L 361 327 L 361 310 M 21 327 L 38 327 L 38 344 L 21 344 L 21 327 M 55 327 L 72 327 L 72 344 L 55 344 A 0 0 0 0 1 55 344 L 55 327 M 72 327 L 89 327 L 89 344 L 72 344 L 72 327 M 89 327 L 106 327 L 106 344 A 0 0 0 0 1 106 344 L 89 344 L 89 327 M 123 327 L 140 327 L 140 344 L 123 344 L 123 327 M 208 327 L 208 327 L 208 327 A 0 0 0 0 1 208 327 M 208 344 L 208 344 L 208 344 A 0 0 0 0 1 208 344 M 208 327 L 225 327 L 225 344 L 208 344 L 208 327 M 225 327 L 242 327 L 242 344 L 225 344 L 225 327 M 242 327 L 259 327 A 0 0 0 0 1 259 327 L 259 344 A 0 0 0 0 1 259 344 L 242 344 L 242 327 M 276 344 L 276 344 L 276 344 A 0 0 0 0 1 276 344 M 276 327 L 293 327 L 293 344 L 276 344 L 276 327 M 310 327 L 327 327 L 327 344 L 310 344 L 310 327 A 0 0 0 0 1 310 327 M 327 327 L 344 327 A 0 0 0 0 1 344 327 L 344 344 A 0 0 0 0 1 344 344 L 327 344 L 327 327 M 361 327 L 361 327 L 361 327 A 0 0 0 0 1 361 327 M 361 327 L 378 327 L 378 344 A 0 0 0 0 1 378 344 L 361 344 A 0 0 0 0 1 361 344 L 361 327 M 21 344 L 38 344 L 38 361 L 21 361 L 21 344 M 38 361 L 38 361 L 38 361 A 0 0 0 0 1 38 361 M 123 361 L 123 361 L 123 361 A 0 0 0 0 1 123 361 M 123 344 L 140 344 L 140 361 L 123 361 L 123 344 M 174 344 L 191 344 L 191 361 L 174 361 L 174 344 A 0 0 0 0 1 174 344 M 191 344 L 208 344 L 208 361 L 191 361 L 191 344 M 208 344 L 225 344 L 225 361 L 208 361 L 208 344 M 225 344 L 242 344 L 242 361 A 0 0 0 0 1 242 361 L 225 361 L 225 344 M 242 344 L 242 344 L 242 344 A 0 0 0 0 1 242 344 M 259 344 L 276 344 L 276 361 L 259 361 A 0 0 0 0 1 259 361 L 259 344 A 0 0 0 0 1 259 344 M 276 344 L 293 344 L 293 361 L 276 361 L 276 344 M 310 344 L 327 344 L 327 361 A 0 0 0 0 1 327 361 L 310 361 A 0 0 0 0 1 310 361 L 310 344 M 327 344 L 327 344 L 327 344 A 0 0 0 0 1 327 344 M 21 361 L 38 361 L 38 378 L 21 378 A 0 0 0 0 1 21 378 L 21 361 M 38 361 L 55 361 L 55 378 L 38 378 L 38 361 M 55 361 L 72 361 L 72 378 L 55 378 L 55 361 M 72 361 L 89 361 L 89 378 L 72 378 L 72 361 M 89 361 L 106 361 L 106 378 L 89 378 L 89 361 M 106 361 L 123 361 L 123 378 L 106 378 L 106 361 M 123 361 L 140 361 L 140 378 A 0 0 0 0 1 140 378 L 123 378 L 123 361 M 174 361 L 191 361 L 191 378 A 0 0 0 0 1 191 378 L 174 378 A 0 0 0 0 1 174 378 L 174 361 M 191 361 L 191 361 L 191 361 A 0 0 0 0 1 191 361 M 276 361 L 276 361 L 276 361 A 0 0 0 0 1 276 361 M 276 361 L 293 361 L 293 378 A 0 0 0 0 1 293 378 L 276 378 A 0 0 0 0 1 276 378 L 276 361 M 327 361 L 344 361 L 344 378 L 327 378 A 0 0 0 0 1 327 378 L 327 361 A 0 0 0 0 1 327 361 M 344 361 L 361 361 A 0 0 0 0 1 361 361 L 361 378 A 0 0 0 0 1 361 378 L 344 378 L 344 361 " fill="#000000"/><text x="200" y="220" style="font: bold 80px sans-serif; fill: rgb(255, 152, 24); paint-order: stroke; stroke: rgb(255, 255, 255); stroke-width: 8;"/></svg>